<svg height="17.281" viewBox="0 0 17.281 17.281" width="17.281" xmlns="http://www.w3.org/2000/svg"><path d="m10.964 2.389a5.675 5.675 0 0 0 -.858-.858 5.764 5.764 0 0 0 -3.981-1.531 6.01 6.01 0 0 0 -3.981 1.47 4.122 4.122 0 0 0 -.857.919 6.07 6.07 0 0 0 0 7.472 5.675 5.675 0 0 0 .857.858 6.01 6.01 0 0 0 3.981 1.47 6.01 6.01 0 0 0 3.981-1.47 5.675 5.675 0 0 0 .858-.858 6.07 6.07 0 0 0 0-7.472zm-8.82.919a4.041 4.041 0 0 1 .735 1.654c-.49.061-1.041.184-1.592.306a4.372 4.372 0 0 1 .857-1.961zm-.919 3.246c.612-.184 1.225-.306 1.837-.429a4.99 4.99 0 0 1 -.919 2.818 5.143 5.143 0 0 1 -.918-2.389zm4.287 4.41a4.49 4.49 0 0 1 -2.512-1.103 6.127 6.127 0 0 0 1.287-3.736v-.125a8.209 8.209 0 0 1 1.225-.061zm0-6.309a10.935 10.935 0 0 0 -1.412.122 5.367 5.367 0 0 0 -1.1-2.388 4.49 4.49 0 0 1 2.511-1.1zm4.594-1.347a4.935 4.935 0 0 1 .858 2.021c-.551-.184-1.1-.306-1.592-.429a4.178 4.178 0 0 1 .734-1.593zm-3.369-2.022a4.49 4.49 0 0 1 2.511 1.1 6.681 6.681 0 0 0 -1.163 2.392c-.49-.061-.919-.061-1.409-.122v-3.37zm0 9.678v-5.084c.429 0 .8.061 1.225.061v.122a6.127 6.127 0 0 0 1.287 3.737 4.178 4.178 0 0 1 -2.512 1.164zm3.369-2.021a4.99 4.99 0 0 1 -.919-2.818c.613.122 1.225.245 1.837.429a5.143 5.143 0 0 1 -.918 2.389z" fill="#fff" transform="matrix(.70710678 .70710678 -.70710678 .70710678 8.619 0)"/></svg>