<svg height="26" viewBox="0 0 26 26" width="26" xmlns="http://www.w3.org/2000/svg" xmlns:xlink="http://www.w3.org/1999/xlink"><linearGradient id="a" gradientUnits="objectBoundingBox" x1=".881" x2=".677" y1=".123" y2="1"><stop offset="0" stop-color="#fea64c"/><stop offset="1" stop-color="#fe1e9a"/></linearGradient><path d="m22.955 2.5h-1.874v-.7a1.767 1.767 0 0 0 -1.8-1.8 1.816 1.816 0 0 0 -1.8 1.8v.62h-8.9v-.62a1.8 1.8 0 1 0 -3.581 0v.62h-1.955a3.226 3.226 0 0 0 -3.045 3.124l.078 17.1a3.344 3.344 0 0 0 3.122 3.356h19.6a3.4 3.4 0 0 0 3.123-3.357l.077-17.099a3.049 3.049 0 0 0 -3.045-3.044zm-.547 11.087v8.12a.616.616 0 0 1 -.625.625h-17.489a.616.616 0 0 1 -.625-.625v-8.12zm-15.615-4.92a1.834 1.834 0 0 0 1.8-1.874v-.625h8.745v.625a1.816 1.816 0 0 0 1.8 1.8 1.957 1.957 0 0 0 1.952-1.8v-.625h.7a.616.616 0 0 1 .625.625v3.2h-18.745v-3.2a.616.616 0 0 1 .625-.625h.705v.625a1.834 1.834 0 0 0 1.793 1.874z" fill="url(#a)"/></svg>