<svg height="14.267" viewBox="0 0 12.476 14.267" width="12.476" xmlns="http://www.w3.org/2000/svg"><path d="m1.224 0a1.227 1.227 0 0 0 -1.224 1.224v3.059a3.571 3.571 0 0 0 3.059 3.61v3.12h-.612a.578.578 0 0 0 -.612.612.578.578 0 0 0 .612.612h2.447a.578.578 0 0 0 .612-.612.578.578 0 0 0 -.612-.612h-.611v-3.121a3.571 3.571 0 0 0 3.059-3.61v-3.058a1.227 1.227 0 0 0 -1.224-1.224zm4.894 4.283a2.479 2.479 0 0 1 -2.692 2.447 2.529 2.529 0 0 1 -2.2-2.57v-2.325a.578.578 0 0 1 .612-.612h3.668a.578.578 0 0 1 .612.612z" fill="#fff" transform="matrix(.8660254 .5 -.5 .8660254 6.118 0)"/></svg>