<svg height="11.39" viewBox="0 0 12.25 11.39" width="12.25" xmlns="http://www.w3.org/2000/svg"><path d="m10.413 4.044-2.144-3.736a.678.678 0 0 0 -.858-.245.678.678 0 0 0 -.245.857l1.777 3.124h-5.7l1.78-3.124a.6.6 0 0 0 -.184-.857.678.678 0 0 0 -.858.245l-2.143 3.736h-1.225a.579.579 0 0 0 -.613.612.579.579 0 0 0 .613.613h.187l.857 5.084a1.246 1.246 0 0 0 1.225 1.041h6.489a1.246 1.246 0 0 0 1.229-1.041l.858-5.084h.184a.579.579 0 0 0 .613-.613.579.579 0 0 0 -.613-.612zm-1.532 6.125h-5.512a.659.659 0 0 1 -.612-.49l-.674-4.41h8.269l-.857 4.41a.659.659 0 0 1 -.614.49z" fill="#fff" transform="translate(0 -.003)"/></svg>